<?xml version="1.0" encoding="UTF-8"?>
<svg xmlns="http://www.w3.org/2000/svg" xmlns:xlink="http://www.w3.org/1999/xlink" viewBox="0 0 26 26" version="1.1" width="208px" height="208px">
<g id="surface1">
<path style=" " d="M 0 1 L 0.0625 25.125 C 0.0117188 25.625 0.371094 26 0.8125 26 L 19.1875 26 L 26 20.1875 L 26 1 L 23 3 L 21 1 L 19 3 L 17 1 L 15 3 L 13 1 L 11 3 L 9 1 L 7 3 L 5 1 L 3 3 Z M 5 3.6875 L 5.65625 4.34375 C 6.011719 4.699219 6.496094 4.90625 7 4.90625 C 7.503906 4.90625 7.988281 4.699219 8.34375 4.34375 L 9 3.6875 L 9.65625 4.34375 C 10.027344 4.714844 10.515625 4.90625 11 4.90625 C 11.484375 4.90625 11.972656 4.714844 12.34375 4.34375 L 13 3.6875 L 13.65625 4.34375 C 14.011719 4.699219 14.496094 4.90625 15 4.90625 C 15.503906 4.90625 15.988281 4.699219 16.34375 4.34375 L 17 3.6875 L 17.65625 4.34375 C 18.027344 4.714844 18.515625 4.90625 19 4.90625 C 19.484375 4.90625 19.972656 4.714844 20.34375 4.34375 L 21 3.6875 L 21.65625 4.34375 C 22.023438 4.710938 22.507813 4.90625 23 4.90625 C 23.363281 4.90625 23.742188 4.808594 24.0625 4.59375 L 24.09375 4.5625 L 24.09375 19 L 14 19 L 14 20 L 19 20 L 19 21 L 14 21 L 14 22 L 19 22 L 19 23.65625 L 18.5 24.09375 L 1.9375 24.09375 L 1.90625 4.5625 L 1.9375 4.59375 C 2.257813 4.808594 2.632813 4.90625 3 4.90625 C 3.488281 4.90625 3.976563 4.710938 4.34375 4.34375 Z M 3 6 L 3 9 L 23 9 L 23 6 Z M 3 11 L 3 20 L 12 20 L 12 11 Z M 14 11 L 14 12 L 23 12 L 23 11 Z M 6 13 L 6 14 L 7 13 L 10 13 L 11 14 L 8 14 L 8 16 L 9 15 L 11 15 L 11 17 L 10 18 L 6 18 L 5 17 L 5 14 Z M 8 16 L 7 17 L 10 17 L 10 16 Z M 7 17 L 7 14 L 6 14 L 6 17 Z M 14 13 L 14 14 L 23 14 L 23 13 Z M 14 15 L 14 16 L 23 16 L 23 15 Z M 14 17 L 14 18 L 23 18 L 23 17 Z M 3 21 L 3 22 L 12 22 L 12 21 Z "/>
</g>
</svg>
