<svg width="34" height="34" viewBox="0 0 34 34" fill="none" xmlns="http://www.w3.org/2000/svg">
<path fill-rule="evenodd" clip-rule="evenodd" d="M24.3021 21.3824H22.7587L22.2222 20.8498C24.1174 18.6396 25.2701 15.7744 25.2701 12.6351C25.2701 5.65662 19.6135 0 12.6351 0C5.65662 0 0 5.65662 0 12.6351C0 19.6135 5.65662 25.2701 12.6351 25.2701C15.7744 25.2701 18.6377 24.1194 20.8479 22.2261L21.3844 22.7587V24.2982L31.0998 34L33.9981 31.1017L24.3021 21.3824ZM12.6351 21.3824C7.80264 21.3824 3.88771 17.4675 3.88771 12.6351C3.88771 7.80458 7.80264 3.88771 12.6351 3.88771C17.4656 3.88771 21.3824 7.80458 21.3824 12.6351C21.3824 17.4675 17.4656 21.3824 12.6351 21.3824Z" fill="#F2CB05"/>
</svg>
