<svg width="22" height="14" viewBox="0 0 22 14" fill="none" xmlns="http://www.w3.org/2000/svg">
<path d="M6.18601 13.4622C6.44599 13.7229 6.8681 13.7235 7.12882 13.4635C7.38954 13.2036 7.39014 12.7814 7.13017 12.5207L6.18601 13.4622ZM0.675171 6.99146L0.203095 6.52072C-0.0563594 6.78092 -0.0563594 7.20199 0.203095 7.46219L0.675171 6.99146ZM7.13017 1.46219C7.39014 1.20147 7.38954 0.779357 7.12882 0.519379C6.8681 0.2594 6.44599 0.260002 6.18601 0.520722L7.13017 1.46219ZM7.13017 12.5207L1.14725 6.52072L0.203095 7.46219L6.18601 13.4622L7.13017 12.5207ZM1.14725 7.46219L7.13017 1.46219L6.18601 0.520722L0.203095 6.52072L1.14725 7.46219Z" fill="#F2CB05"/>
<path d="M21.3248 6.99146L3.82477 6.99146H1.32477" stroke="#F2CB05" stroke-width="1.33333" stroke-linecap="round"/>
</svg>
