<svg width="40" height="34" viewBox="0 0 40 34" fill="none" xmlns="http://www.w3.org/2000/svg">
<path fill-rule="evenodd" clip-rule="evenodd" d="M4 3C4 1.34315 5.34315 0 7 0H33C34.6569 0 36 1.34315 36 3V22C36 22.5523 35.5523 23 35 23H5C4.44772 23 4 22.5523 4 22V3ZM7 2C6.44772 2 6 2.44772 6 3V21H34V3C34 2.44772 33.5523 2 33 2H7Z" fill="#F2CB05"/>
<path d="M14 29C13.4477 29 13 29.4477 13 30C13 30.5523 13.4477 31 14 31H26C26.5523 31 27 30.5523 27 30C27 29.4477 26.5523 29 26 29H14Z" fill="#F2CB05"/>
<path fill-rule="evenodd" clip-rule="evenodd" d="M4.10557 24.5528C4.27497 24.214 4.62123 24 5 24H35C35.3788 24 35.725 24.214 35.8944 24.5528L39.8944 32.5528C40.0494 32.8628 40.0329 33.2309 39.8507 33.5257C39.6684 33.8205 39.3466 34 39 34H1C0.653423 34 0.331557 33.8205 0.14935 33.5257C-0.0328564 33.2309 -0.0494204 32.8628 0.105574 32.5528L4.10557 24.5528ZM5.61803 26L2.61803 32H37.382L34.382 26H5.61803Z" fill="#F2CB05"/>
</svg>
