<svg width="35" height="38" viewBox="0 0 35 38" fill="none" xmlns="http://www.w3.org/2000/svg">
<path fill-rule="evenodd" clip-rule="evenodd" d="M30.6513 18.8936C30.6513 18.2733 30.5988 17.6895 30.5288 17.1056L34.2213 14.0953C34.5538 13.8216 34.6413 13.329 34.4313 12.9276L30.9313 6.61494C30.7213 6.21355 30.2488 6.0676 29.8638 6.21355L25.5063 8.03802C24.5963 7.30823 23.6163 6.70616 22.5488 6.25004L21.8838 1.4152C21.8313 0.97733 21.4638 0.648926 21.0263 0.648926H14.0263C13.5888 0.648926 13.2213 0.97733 13.1688 1.4152L12.5038 6.25004C11.4363 6.70616 10.4563 7.32648 9.54633 8.03802L5.18883 6.21355C4.78633 6.04935 4.33133 6.21355 4.12133 6.61494L0.62133 12.9276C0.39383 13.329 0.49883 13.8216 0.83133 14.0953L4.52383 17.1056C4.45383 17.6895 4.40133 18.2915 4.40133 18.8936C4.40133 19.4957 4.45383 20.0978 4.52383 20.6816L0.83133 23.692C0.49883 23.9656 0.41133 24.4582 0.62133 24.8596L4.12133 31.1723C4.33133 31.5737 4.80383 31.7196 5.18883 31.5737L9.54633 29.7492C10.4563 30.479 11.4363 31.0811 12.5038 31.5372L13.1688 36.372C13.2213 36.8099 13.5888 37.1383 14.0263 37.1383H21.0263C21.4638 37.1383 21.8313 36.8099 21.8838 36.372L22.5488 31.5372C23.6163 31.0811 24.5963 30.4607 25.5063 29.7492L29.8638 31.5737C30.2663 31.7379 30.7213 31.5737 30.9313 31.1723L34.4313 24.8596C34.6413 24.4582 34.5538 23.9656 34.2213 23.692L30.5288 20.6816C30.5988 20.0978 30.6513 19.5139 30.6513 18.8936ZM17.5263 25.2793C14.1488 25.2793 11.4013 22.4148 11.4013 18.8936C11.4013 15.3724 14.1488 12.508 17.5263 12.508C20.9038 12.508 23.6513 15.3724 23.6513 18.8936C23.6513 22.4148 20.9038 25.2793 17.5263 25.2793Z" fill="#F2CB05"/>
</svg>
