<svg width="30" height="23" viewBox="0 0 30 23" fill="none" xmlns="http://www.w3.org/2000/svg">
<path d="M6.90004 0.766666C6.90004 0.343248 6.55679 0 6.13337 0C5.70995 0 5.3667 0.343248 5.3667 0.766666V20.3825L1.30878 16.3246C1.00938 16.0252 0.523953 16.0252 0.224551 16.3246C-0.0748505 16.624 -0.0748505 17.1094 0.224551 17.4088L5.59121 22.7755C5.67734 22.8616 5.77886 22.9229 5.88693 22.9595C5.94416 22.9789 6.00443 22.9918 6.06683 22.9971C6.10632 23.0005 6.14601 23.0009 6.18554 22.9982C6.36134 22.9864 6.52091 22.9153 6.64443 22.8048C6.65629 22.7942 6.66783 22.7832 6.67901 22.7719L12.0421 17.4088C12.3415 17.1094 12.3415 16.624 12.0421 16.3246C11.7427 16.0252 11.2573 16.0252 10.9579 16.3246L6.90004 20.3824V0.766666Z" fill="#1C3AA9"/>
<path fill-rule="evenodd" clip-rule="evenodd" d="M14.5667 2.29997C14.5667 1.87656 14.9099 1.53331 15.3334 1.53331H19.9333C20.3568 1.53331 20.7 1.87656 20.7 2.29997C20.7 2.72339 20.3568 3.06664 19.9333 3.06664H15.3334C14.9099 3.06664 14.5667 2.72339 14.5667 2.29997Z" fill="#1C3AA9"/>
<path fill-rule="evenodd" clip-rule="evenodd" d="M14.5667 12.075C14.5667 11.6515 14.9099 11.3083 15.3334 11.3083H24.5333C24.9568 11.3083 25.3 11.6515 25.3 12.075C25.3 12.4984 24.9568 12.8416 24.5333 12.8416H15.3334C14.9099 12.8416 14.5667 12.4984 14.5667 12.075Z" fill="#1C3AA9"/>
<path fill-rule="evenodd" clip-rule="evenodd" d="M14.5667 21.85C14.5667 21.4265 14.9099 21.0833 15.3334 21.0833H29.1333C29.5568 21.0833 29.9 21.4265 29.9 21.85C29.9 22.2734 29.5568 22.6166 29.1333 22.6166H15.3334C14.9099 22.6166 14.5667 22.2734 14.5667 21.85Z" fill="#1C3AA9"/>
</svg>
