<svg width="27" height="37" viewBox="0 0 27 37" fill="none" xmlns="http://www.w3.org/2000/svg">
<path d="M18.6067 36.5457H14.0604C10.7381 36.5457 7.59058 34.7971 6.01684 31.9993L0.246472 22.7318C-0.278107 21.3329 0.0716121 19.934 0.94591 19.0597C1.82021 18.3603 3.21909 18.3603 4.26824 19.2346L6.54142 21.3329L6.71628 7.51897C6.71628 5.77037 8.11516 4.37149 9.86375 4.37149C10.3883 4.37149 10.9129 4.54635 11.2626 4.72121V3.32233C11.2626 1.39888 12.6615 0 14.585 0C16.5084 0 17.9073 1.39888 17.9073 3.32233V3.49719C18.4319 3.32233 18.9565 3.14747 19.481 3.14747C21.4045 3.14747 22.8034 4.54635 22.8034 6.46981V9.44242C23.1531 9.26756 23.5028 9.26756 23.8525 9.26756C25.6011 9.26756 27 10.6664 27 12.415V28.1524C27 32.6988 23.1531 36.5457 18.6067 36.5457ZM2.34479 20.2837C2.16993 20.2837 1.99507 20.2837 1.99507 20.4586C1.64535 20.6334 1.47049 21.3329 1.82021 21.8575L7.41572 30.9502C8.81459 33.2233 11.2626 34.7971 14.0604 34.7971H18.6067C22.2788 34.7971 25.2514 31.8245 25.2514 28.1524V12.415C25.2514 11.7156 24.552 11.0162 23.8525 11.0162C23.1531 11.0162 22.8034 11.7156 22.8034 12.415L22.6285 19.2346C22.6285 19.7591 22.2788 20.1089 21.7542 20.1089C21.2296 20.1089 20.8799 19.7591 20.8799 19.2346L21.0548 6.46981C21.0548 5.59551 20.3553 4.89607 19.481 4.89607C18.6067 4.89607 17.9073 5.59551 17.9073 6.46981V19.2346C17.9073 19.7591 17.5576 20.1089 17.033 20.1089C16.5084 20.1089 16.1587 19.7591 16.1587 19.2346V3.32233C16.1587 2.44804 15.4593 1.7486 14.585 1.7486C13.7107 1.7486 13.0112 2.44804 13.0112 3.32233V19.4094C13.0112 19.934 12.6615 20.2837 12.1369 20.2837C11.6123 20.2837 11.2626 19.934 11.2626 19.4094V7.69383C11.2626 6.99439 10.5632 6.29495 9.86375 6.29495C9.16431 6.29495 8.46488 6.99439 8.46488 7.69383L8.29002 23.4312C8.29002 23.7809 8.11516 24.1306 7.76544 24.3055C7.41572 24.4804 7.066 24.3055 6.89114 24.1306L3.21909 20.6334C3.04423 20.4586 2.69451 20.2837 2.34479 20.2837Z" fill="#1C3AA9"/>
</svg>
