<svg width="39" height="39" viewBox="0 0 39 39" fill="none" xmlns="http://www.w3.org/2000/svg">
<path fill-rule="evenodd" clip-rule="evenodd" d="M29.641 0.705737C30.0307 0.315969 30.6627 0.315969 31.0524 0.705737L38.1098 7.76311C38.4996 8.15288 38.4996 8.78482 38.1098 9.17458L15.5262 31.7582C15.4063 31.8781 15.2578 31.9655 15.0947 32.0121L5.21436 34.835C4.86584 34.9346 4.49073 34.8374 4.23443 34.5811C3.97813 34.3248 3.88093 33.9497 3.98051 33.6012L6.80346 23.7209C6.85006 23.5578 6.93745 23.4093 7.05738 23.2893L29.641 0.705737ZM30.3467 2.82295L11.2918 21.8779L16.9377 27.5238L35.9926 8.46885L30.3467 2.82295ZM15.5262 28.9352L9.88032 23.2893L8.65173 24.5179L6.39337 32.4222L14.2976 30.1638L15.5262 28.9352Z" fill="#F2CB05"/>
</svg>
