<svg width="36" height="36" viewBox="0 0 36 36" fill="none" xmlns="http://www.w3.org/2000/svg">
<path d="M18 30C18.8284 30 19.5 29.3284 19.5 28.5C19.5 27.6716 18.8284 27 18 27C17.1716 27 16.5 27.6716 16.5 28.5C16.5 29.3284 17.1716 30 18 30Z" fill="#1C3AA9"/>
<path fill-rule="evenodd" clip-rule="evenodd" d="M9 6C9 4.34315 10.3431 3 12 3H24C25.6569 3 27 4.34315 27 6V30C27 31.6569 25.6569 33 24 33H12C10.3431 33 9 31.6569 9 30V6ZM12 4.5H24C24.8284 4.5 25.5 5.17157 25.5 6V30C25.5 30.8284 24.8284 31.5 24 31.5H12C11.1716 31.5 10.5 30.8284 10.5 30V6C10.5 5.17157 11.1716 4.5 12 4.5Z" fill="#1C3AA9"/>
</svg>
